<svg xmlns="http://www.w3.org/2000/svg" xmlns:xlink="http://www.w3.org/1999/xlink" width="960" height="994" viewBox="0 0 960 994">
  <defs>
    <clipPath id="clip-path">
      <rect id="Rectangle_2472" data-name="Rectangle 2472" width="960" height="994" transform="translate(0 7739)" fill="#fff"/>
    </clipPath>
    <clipPath id="clip-path-2">
      <rect id="Rectangle_2459" data-name="Rectangle 2459" width="62.737" height="30.216" transform="translate(306.695 51.848)" fill="none"/>
    </clipPath>
  </defs>
  <g id="Groupe_de_masques_16" data-name="Groupe de masques 16" transform="translate(0 -7739)" clip-path="url(#clip-path)">
    <g id="Groupe_3897" data-name="Groupe 3897">
      <g id="Groupe_3890" data-name="Groupe 3890">
        <g id="Groupe_3860" data-name="Groupe 3860" transform="translate(-1364 3949)">
          <path id="Tracé_11090" data-name="Tracé 11090" d="M126.648,138.034l-1.425,0,0-.75,1.421,0q1.275,0,2.574-.011l.006.75q-1.3.011-2.58.011m-6.43-.069q-2.033-.045-4-.119l.028-.749q1.965.072,3.992.118Zm14.014-.02-.017-.75q1.973-.045,4-.113l.025.75q-2.028.067-4,.113m9-.314-.035-.749q1.971-.092,3.991-.2l.042.749q-2.023.112-4,.2m-32.021-.022q-2.034-.118-4-.269l.058-.748q1.956.15,3.983.268Zm41.013-.489-.05-.748q1.971-.132,3.987-.283l.056.748q-2.019.151-3.993.283m-50-.224q-2.031-.207-3.982-.451l.093-.744q1.942.243,3.965.449Zm58.978-.456-.063-.747q1.97-.168,3.982-.352l.068.747q-2.015.185-3.987.352m-67.921-.692q-2.021-.315-3.952-.675l.137-.737q1.921.357,3.931.671Zm76.888-.138-.075-.746q1.968-.2,3.976-.412l.08.746q-2.012.215-3.981.412m8.954-.962-.086-.745,1.037-.119q1.463-.169,2.926-.365l.1.743q-1.47.2-2.94.367Zm-94.7-.584c-1.324-.3-2.635-.62-3.9-.953l.192-.726c1.252.331,2.554.65,3.87.948Zm103.639-.636-.12-.74q1.974-.319,3.94-.683l.137.738q-1.976.363-3.957.685m8.876-1.657-.154-.733q1.953-.412,3.9-.862l.168.731q-1.953.45-3.915.864m-121.228-.059c-1.294-.412-2.572-.849-3.8-1.3l.259-.7c1.215.448,2.482.882,3.765,1.291Zm130.009-1.988-.186-.726q1.935-.5,3.858-1.021l.2.724q-1.927.528-3.869,1.023M67.262,128.53c-1.24-.549-2.461-1.131-3.628-1.728l.342-.668c1.154.592,2.362,1.167,3.589,1.71Zm147.14-1.2-.212-.719q1.911-.567,3.809-1.162l.225.716q-1.9.6-3.822,1.165m8.586-2.711-.238-.711q1.9-.636,3.781-1.3l.248.708q-1.884.662-3.791,1.3m-163.734-.281c-1.151-.71-2.278-1.46-3.349-2.228l.438-.61c1.056.759,2.168,1.5,3.305,2.2Zm172.239-2.721-.261-.7q1.88-.7,3.738-1.415l.269.7q-1.86.72-3.746,1.419M51.958,118.992c-1.012-.879-2-1.807-2.934-2.757l.534-.526c.922.936,1.9,1.851,2.892,2.716Zm187.941-.639-.282-.695q1.861-.756,3.695-1.525l.291.691q-1.837.771-3.7,1.529m8.307-3.5-.3-.687q1.845-.809,3.653-1.626l.308.684q-1.811.819-3.66,1.629M45.674,112.478a21.83,21.83,0,0,1-2.245-3.386l.662-.352a21.03,21.03,0,0,0,2.169,3.269Zm210.743-1.355-.318-.678q1.826-.858,3.61-1.72l.326.675q-1.785.864-3.618,1.723m8.114-3.934-.336-.671q1.813-.906,3.569-1.808l.342.667q-1.758.9-3.575,1.812m-222.8-2.9a15.208,15.208,0,0,1-.249-2.736q0-.672.058-1.341l.747.064q-.054.637-.055,1.277a14.546,14.546,0,0,0,.236,2.6Zm230.817-1.228-.352-.663q1.8-.954,3.526-1.893l.357.66q-1.727.939-3.531,1.9m7.92-4.318-.367-.655q1.788-1,3.479-1.974l.373.65q-1.692.972-3.485,1.979M43.429,95.547l-.7-.275a23.7,23.7,0,0,1,1.815-3.627l.641.389a22.991,22.991,0,0,0-1.758,3.513m244.855-1.309-.383-.645q1.793-1.061,3.434-2.057l.389.642q-1.644,1-3.44,2.06m7.709-4.69-.4-.636c1.222-.764,2.352-1.482,3.383-2.144l.406.63q-1.551,1-3.391,2.15M48.085,88.037l-.574-.483c.828-.984,1.751-1.979,2.742-2.96l.528.533c-.975.965-1.882,1.944-2.7,2.91m255.5-3.389-.416-.624c2.154-1.44,3.31-2.263,3.313-2.265l.435.611s-1.162.828-3.332,2.278M54.469,81.8l-.479-.577c.992-.823,2.058-1.658,3.168-2.479l.447.6c-1.1.814-2.155,1.64-3.136,2.454M61.7,76.5l-.41-.628c1.1-.717,2.244-1.434,3.408-2.13l.385.644c-1.156.691-2.294,1.4-3.383,2.114m7.721-4.576-.355-.66c1.159-.624,2.36-1.244,3.569-1.843l.333.672c-1.2.6-2.395,1.212-3.547,1.831m8.064-3.948-.3-.686c1.243-.55,2.49-1.074,3.705-1.558l.277.7c-1.206.481-2.444,1-3.678,1.548" transform="translate(1372 4611)" fill="#a8aab3"/>
          <g id="Groupe_3859" data-name="Groupe 3859">
            <path id="Tracé_11091" data-name="Tracé 11091" d="M312.51,64.676,306.7,82.064l12.891-10.629,49.846-19.587Z" transform="translate(1372 4611)" fill="#686b78"/>
            <g id="Groupe_3858" data-name="Groupe 3858" transform="translate(1372 4611)" opacity="0.1">
              <g id="Groupe_3857" data-name="Groupe 3857">
                <g id="Groupe_3856" data-name="Groupe 3856" clip-path="url(#clip-path-2)">
                  <path id="Tracé_11092" data-name="Tracé 11092" d="M312.51,64.676,306.7,82.064l12.891-10.629,49.846-19.587Z"/>
                </g>
              </g>
            </g>
            <path id="Tracé_11093" data-name="Tracé 11093" d="M321.383,75.4l-14.688,6.662,12.892-10.63Z" transform="translate(1372 4611)" fill="#263238"/>
            <path id="Tracé_11094" data-name="Tracé 11094" d="M319.587,71.435l49.846-19.586L329.219,93.227Z" transform="translate(1372 4611)" fill="#686b78"/>
            <path id="Tracé_11095" data-name="Tracé 11095" d="M312.51,64.676l-21.273-12.95,78.2.122Z" transform="translate(1372 4611)" fill="#686b78"/>
          </g>
        </g>
        <path id="Tracé_11096" data-name="Tracé 11096" d="M292.636,273.578q-.714-.686-1.447-1.373l.511-.547q.739.69,1.456,1.379Z" transform="translate(148 8372)" fill="#263238"/>
        <g id="Groupe_3861" data-name="Groupe 3861" transform="translate(-1358 3870.734)">
          <rect id="Rectangle_2460" data-name="Rectangle 2460" width="94.446" height="59.895" transform="translate(1372 4736) rotate(-7.765)" fill="#064663" stroke="#a8aab3" stroke-width="1"/>
          <path id="Tracé_11097" data-name="Tracé 11097" d="M93.579,112.238c-3.288,4.13-6.666,8.117-9.989,12.193-3.363,4-6.737,8.01-10.134,11.979q-5.314,6.218-10.67,12.346c-.111.13-.207.261-.319.393q-4.736,5.41-9.5,10.823l-.474.512-.58-.369q-6.033-3.94-12.043-7.9c-.14-.079-.282-.176-.424-.274-4.544-2.984-9.076-5.989-13.6-9.054-4.317-2.9-8.643-5.855-12.953-8.812C8.6,131.034,4.273,128.1,0,125c4.441,2.55,8.833,5.262,13.244,7.894,4.4,2.692,8.807,5.384,13.191,8.137q7.318,4.555,14.646,9.263c.014,0,.014,0,.031.016q5.478,3.489,10.962,7.018c2.881-3.237,5.771-6.5,8.67-9.7.009-.04.009-.04.023-.043q5.8-6.459,11.631-12.845,5.236-5.71,10.521-11.35c3.558-3.719,7.063-7.508,10.66-11.155" transform="translate(1372 4611)" fill="#fff"/>
          <path id="Tracé_11098" data-name="Tracé 11098" d="M39.03,140.01c-.038.034-.06.081-.1.113-.434.489-.868.979-1.3,1.452-2.076,2.3-4.221,4.526-6.415,6.7-2.669,2.682-5.421,5.276-8.191,7.859-2.787,2.542-5.592,5.07-8.478,7.525s-5.8,4.872-8.861,7.135c2.5-2.875,5.136-5.6,7.806-8.264,2.682-2.685,5.435-5.279,8.189-7.86,2.8-2.557,5.6-5.087,8.491-7.541,2.295-1.96,4.636-3.9,7.047-5.743.556-.433,1.113-.852,1.686-1.275.038-.034.091-.069.129-.1" transform="translate(1374.376 4622.616)" fill="#fff"/>
          <path id="Tracé_11099" data-name="Tracé 11099" d="M83.253,158.876c-3.55-1.362-7.025-2.907-10.448-4.5s-6.816-3.279-10.2-4.98c-3.358-1.746-6.706-3.509-9.995-5.38-2.683-1.509-5.343-3.065-7.947-4.727-.563-.353-1.112-.708-1.661-1.062-.047-.023-.081-.061-.126-.082a.7.7,0,0,0,.15.051c.667.267,1.316.522,1.969.79,2.817,1.133,5.577,2.374,8.327,3.645,3.438,1.593,6.818,3.279,10.186,5,3.358,1.746,6.706,3.509,9.995,5.378s6.569,3.771,9.748,5.872" transform="translate(1389.935 4621.836)" fill="#fff"/>
        </g>
      </g>
    </g>
  </g>
</svg>
